<mxfile host="app.diagrams.net" modified="2023-11-17T19:23:38.874Z" agent="Mozilla/5.0 (Windows NT 10.0; Win64; x64) AppleWebKit/537.36 (KHTML, like Gecko) Chrome/119.0.0.0 Safari/537.36" etag="z0OLnNXEYMItLyZHYK32" version="22.1.3" type="github">
  <diagram id="C5RBs43oDa-KdzZeNtuy" name="Page-1">
    <mxGraphModel dx="3000" dy="2809" grid="1" gridSize="10" guides="1" tooltips="1" connect="1" arrows="1" fold="1" page="1" pageScale="1" pageWidth="827" pageHeight="1169" math="0" shadow="0">
      <root>
        <mxCell id="WIyWlLk6GJQsqaUBKTNV-0" />
        <mxCell id="WIyWlLk6GJQsqaUBKTNV-1" parent="WIyWlLk6GJQsqaUBKTNV-0" />
        <mxCell id="FIhfvnTf2BQYqZ3gfZuZ-0" value="Hotel User" style="shape=umlActor;verticalLabelPosition=bottom;verticalAlign=top;html=1;outlineConnect=0;" parent="WIyWlLk6GJQsqaUBKTNV-1" vertex="1">
          <mxGeometry x="20" y="10" width="30" height="60" as="geometry" />
        </mxCell>
        <mxCell id="FIhfvnTf2BQYqZ3gfZuZ-1" style="edgeStyle=orthogonalEdgeStyle;rounded=0;orthogonalLoop=1;jettySize=auto;html=1;exitX=0.5;exitY=1;exitDx=0;exitDy=0;" parent="WIyWlLk6GJQsqaUBKTNV-1" source="FIhfvnTf2BQYqZ3gfZuZ-2" target="FIhfvnTf2BQYqZ3gfZuZ-8" edge="1">
          <mxGeometry relative="1" as="geometry" />
        </mxCell>
        <mxCell id="FIhfvnTf2BQYqZ3gfZuZ-2" value="Welcome page" style="rounded=1;whiteSpace=wrap;html=1;fontSize=12;glass=0;strokeWidth=1;shadow=0;" parent="WIyWlLk6GJQsqaUBKTNV-1" vertex="1">
          <mxGeometry x="130" y="60" width="120" height="40" as="geometry" />
        </mxCell>
        <mxCell id="FIhfvnTf2BQYqZ3gfZuZ-3" value="Yes" style="rounded=0;html=1;jettySize=auto;orthogonalLoop=1;fontSize=11;endArrow=block;endFill=0;endSize=8;strokeWidth=1;shadow=0;labelBackgroundColor=none;edgeStyle=orthogonalEdgeStyle;" parent="WIyWlLk6GJQsqaUBKTNV-1" edge="1">
          <mxGeometry x="-0.1522" y="-15" relative="1" as="geometry">
            <mxPoint as="offset" />
            <mxPoint x="684.75" y="910" as="sourcePoint" />
            <mxPoint x="685" y="980" as="targetPoint" />
          </mxGeometry>
        </mxCell>
        <mxCell id="FIhfvnTf2BQYqZ3gfZuZ-4" value="No" style="rounded=0;html=1;jettySize=auto;orthogonalLoop=1;fontSize=11;endArrow=block;endFill=0;endSize=8;strokeWidth=1;shadow=0;labelBackgroundColor=none;edgeStyle=orthogonalEdgeStyle;entryX=0.021;entryY=0.403;entryDx=0;entryDy=0;entryPerimeter=0;exitX=0;exitY=0.5;exitDx=0;exitDy=0;exitPerimeter=0;" parent="WIyWlLk6GJQsqaUBKTNV-1" source="FIhfvnTf2BQYqZ3gfZuZ-41" target="FIhfvnTf2BQYqZ3gfZuZ-38" edge="1">
          <mxGeometry x="0.3333" y="20" relative="1" as="geometry">
            <mxPoint as="offset" />
            <mxPoint x="650" y="870" as="sourcePoint" />
            <mxPoint x="650" y="980" as="targetPoint" />
            <Array as="points">
              <mxPoint x="560" y="875" />
              <mxPoint x="560" y="630" />
            </Array>
          </mxGeometry>
        </mxCell>
        <mxCell id="FIhfvnTf2BQYqZ3gfZuZ-5" style="edgeStyle=orthogonalEdgeStyle;rounded=0;orthogonalLoop=1;jettySize=auto;html=1;exitX=0.5;exitY=1;exitDx=0;exitDy=0;entryX=0.5;entryY=0;entryDx=0;entryDy=0;" parent="WIyWlLk6GJQsqaUBKTNV-1" source="FIhfvnTf2BQYqZ3gfZuZ-6" target="FIhfvnTf2BQYqZ3gfZuZ-38" edge="1">
          <mxGeometry relative="1" as="geometry" />
        </mxCell>
        <mxCell id="FIhfvnTf2BQYqZ3gfZuZ-73" style="edgeStyle=orthogonalEdgeStyle;rounded=0;orthogonalLoop=1;jettySize=auto;html=1;exitX=0.75;exitY=1;exitDx=0;exitDy=0;entryX=0.834;entryY=0.362;entryDx=0;entryDy=0;entryPerimeter=0;" parent="WIyWlLk6GJQsqaUBKTNV-1" source="FIhfvnTf2BQYqZ3gfZuZ-6" target="FIhfvnTf2BQYqZ3gfZuZ-72" edge="1">
          <mxGeometry relative="1" as="geometry">
            <Array as="points">
              <mxPoint x="715" y="572" />
              <mxPoint x="811" y="572" />
            </Array>
          </mxGeometry>
        </mxCell>
        <mxCell id="FIhfvnTf2BQYqZ3gfZuZ-6" value="Home page" style="rounded=1;whiteSpace=wrap;html=1;fontSize=12;glass=0;strokeWidth=1;shadow=0;" parent="WIyWlLk6GJQsqaUBKTNV-1" vertex="1">
          <mxGeometry x="625" y="490" width="120" height="40" as="geometry" />
        </mxCell>
        <mxCell id="FIhfvnTf2BQYqZ3gfZuZ-7" style="edgeStyle=orthogonalEdgeStyle;rounded=0;orthogonalLoop=1;jettySize=auto;html=1;exitX=0.5;exitY=1;exitDx=0;exitDy=0;entryX=0.5;entryY=1;entryDx=0;entryDy=0;" parent="WIyWlLk6GJQsqaUBKTNV-1" source="FIhfvnTf2BQYqZ3gfZuZ-8" target="FIhfvnTf2BQYqZ3gfZuZ-21" edge="1">
          <mxGeometry relative="1" as="geometry" />
        </mxCell>
        <mxCell id="FIhfvnTf2BQYqZ3gfZuZ-8" value="Login/register" style="rounded=1;whiteSpace=wrap;html=1;absoluteArcSize=1;arcSize=14;strokeWidth=2;" parent="WIyWlLk6GJQsqaUBKTNV-1" vertex="1">
          <mxGeometry x="140" y="190" width="100" height="100" as="geometry" />
        </mxCell>
        <mxCell id="FIhfvnTf2BQYqZ3gfZuZ-9" value="" style="verticalLabelPosition=middle;verticalAlign=middle;html=1;shape=trapezoid;perimeter=trapezoidPerimeter;whiteSpace=wrap;size=0.23;arcSize=10;flipV=1;labelPosition=center;align=center;rotation=-180;" parent="WIyWlLk6GJQsqaUBKTNV-1" vertex="1">
          <mxGeometry x="340" y="210" width="120" height="60" as="geometry" />
        </mxCell>
        <mxCell id="FIhfvnTf2BQYqZ3gfZuZ-10" value="Select Login" style="text;html=1;strokeColor=none;fillColor=none;align=center;verticalAlign=middle;whiteSpace=wrap;rounded=0;" parent="WIyWlLk6GJQsqaUBKTNV-1" vertex="1">
          <mxGeometry x="150" y="345" width="60" height="30" as="geometry" />
        </mxCell>
        <mxCell id="FIhfvnTf2BQYqZ3gfZuZ-11" style="edgeStyle=orthogonalEdgeStyle;rounded=0;orthogonalLoop=1;jettySize=auto;html=1;exitX=1;exitY=0.5;exitDx=0;exitDy=0;entryX=0.925;entryY=0.506;entryDx=0;entryDy=0;entryPerimeter=0;" parent="WIyWlLk6GJQsqaUBKTNV-1" source="FIhfvnTf2BQYqZ3gfZuZ-8" target="FIhfvnTf2BQYqZ3gfZuZ-9" edge="1">
          <mxGeometry relative="1" as="geometry" />
        </mxCell>
        <mxCell id="FIhfvnTf2BQYqZ3gfZuZ-12" style="edgeStyle=orthogonalEdgeStyle;rounded=0;orthogonalLoop=1;jettySize=auto;html=1;exitX=0.5;exitY=1;exitDx=0;exitDy=0;entryX=0;entryY=0.5;entryDx=0;entryDy=0;entryPerimeter=0;" parent="WIyWlLk6GJQsqaUBKTNV-1" source="FIhfvnTf2BQYqZ3gfZuZ-13" target="FIhfvnTf2BQYqZ3gfZuZ-15" edge="1">
          <mxGeometry relative="1" as="geometry">
            <mxPoint x="600.3333333333333" y="340" as="targetPoint" />
          </mxGeometry>
        </mxCell>
        <mxCell id="FIhfvnTf2BQYqZ3gfZuZ-13" value="Login page" style="rounded=1;whiteSpace=wrap;html=1;absoluteArcSize=1;arcSize=14;strokeWidth=2;" parent="WIyWlLk6GJQsqaUBKTNV-1" vertex="1">
          <mxGeometry x="550" y="180" width="100" height="100" as="geometry" />
        </mxCell>
        <mxCell id="FIhfvnTf2BQYqZ3gfZuZ-14" style="edgeStyle=orthogonalEdgeStyle;rounded=0;orthogonalLoop=1;jettySize=auto;html=1;exitX=0;exitY=0.5;exitDx=0;exitDy=0;entryX=0;entryY=0.6;entryDx=0;entryDy=0;entryPerimeter=0;" parent="WIyWlLk6GJQsqaUBKTNV-1" source="FIhfvnTf2BQYqZ3gfZuZ-9" target="FIhfvnTf2BQYqZ3gfZuZ-13" edge="1">
          <mxGeometry relative="1" as="geometry">
            <mxPoint x="500" y="240" as="targetPoint" />
          </mxGeometry>
        </mxCell>
        <mxCell id="FIhfvnTf2BQYqZ3gfZuZ-15" value="Login correct" style="strokeWidth=2;html=1;shape=mxgraph.flowchart.decision;whiteSpace=wrap;" parent="WIyWlLk6GJQsqaUBKTNV-1" vertex="1">
          <mxGeometry x="650" y="300" width="70" height="70" as="geometry" />
        </mxCell>
        <mxCell id="FIhfvnTf2BQYqZ3gfZuZ-16" style="edgeStyle=orthogonalEdgeStyle;rounded=0;orthogonalLoop=1;jettySize=auto;html=1;exitX=0.5;exitY=0;exitDx=0;exitDy=0;exitPerimeter=0;entryX=0.5;entryY=0;entryDx=0;entryDy=0;" parent="WIyWlLk6GJQsqaUBKTNV-1" source="FIhfvnTf2BQYqZ3gfZuZ-17" target="FIhfvnTf2BQYqZ3gfZuZ-13" edge="1">
          <mxGeometry relative="1" as="geometry">
            <Array as="points">
              <mxPoint x="740" y="140" />
              <mxPoint x="600" y="140" />
            </Array>
          </mxGeometry>
        </mxCell>
        <mxCell id="FIhfvnTf2BQYqZ3gfZuZ-17" value="Error" style="strokeWidth=2;html=1;shape=mxgraph.flowchart.start_2;whiteSpace=wrap;" parent="WIyWlLk6GJQsqaUBKTNV-1" vertex="1">
          <mxGeometry x="710" y="190" width="60" height="60" as="geometry" />
        </mxCell>
        <mxCell id="FIhfvnTf2BQYqZ3gfZuZ-18" value="Yes" style="rounded=0;html=1;jettySize=auto;orthogonalLoop=1;fontSize=11;endArrow=block;endFill=0;endSize=8;strokeWidth=1;shadow=0;labelBackgroundColor=none;edgeStyle=orthogonalEdgeStyle;" parent="WIyWlLk6GJQsqaUBKTNV-1" target="FIhfvnTf2BQYqZ3gfZuZ-6" edge="1">
          <mxGeometry y="20" relative="1" as="geometry">
            <mxPoint as="offset" />
            <mxPoint x="684.67" y="370" as="sourcePoint" />
            <mxPoint x="684.67" y="510" as="targetPoint" />
          </mxGeometry>
        </mxCell>
        <mxCell id="FIhfvnTf2BQYqZ3gfZuZ-19" value="No" style="rounded=0;html=1;jettySize=auto;orthogonalLoop=1;fontSize=11;endArrow=block;endFill=0;endSize=8;strokeWidth=1;shadow=0;labelBackgroundColor=none;edgeStyle=orthogonalEdgeStyle;entryX=0.5;entryY=1;entryDx=0;entryDy=0;entryPerimeter=0;exitX=0.986;exitY=0.504;exitDx=0;exitDy=0;exitPerimeter=0;" parent="WIyWlLk6GJQsqaUBKTNV-1" source="FIhfvnTf2BQYqZ3gfZuZ-15" target="FIhfvnTf2BQYqZ3gfZuZ-17" edge="1">
          <mxGeometry x="0.3333" y="20" relative="1" as="geometry">
            <mxPoint as="offset" />
            <mxPoint x="720" y="340" as="sourcePoint" />
            <mxPoint x="720" y="450" as="targetPoint" />
            <Array as="points">
              <mxPoint x="740" y="335" />
            </Array>
          </mxGeometry>
        </mxCell>
        <mxCell id="FIhfvnTf2BQYqZ3gfZuZ-20" style="edgeStyle=orthogonalEdgeStyle;rounded=0;orthogonalLoop=1;jettySize=auto;html=1;exitX=0.5;exitY=0;exitDx=0;exitDy=0;" parent="WIyWlLk6GJQsqaUBKTNV-1" source="FIhfvnTf2BQYqZ3gfZuZ-21" target="FIhfvnTf2BQYqZ3gfZuZ-25" edge="1">
          <mxGeometry relative="1" as="geometry" />
        </mxCell>
        <mxCell id="FIhfvnTf2BQYqZ3gfZuZ-21" value="" style="verticalLabelPosition=middle;verticalAlign=middle;html=1;shape=trapezoid;perimeter=trapezoidPerimeter;whiteSpace=wrap;size=0.23;arcSize=10;flipV=1;labelPosition=center;align=center;rotation=-180;" parent="WIyWlLk6GJQsqaUBKTNV-1" vertex="1">
          <mxGeometry x="130" y="340" width="120" height="60" as="geometry" />
        </mxCell>
        <mxCell id="FIhfvnTf2BQYqZ3gfZuZ-22" value="Select Login" style="text;html=1;strokeColor=none;fillColor=none;align=center;verticalAlign=middle;whiteSpace=wrap;rounded=0;" parent="WIyWlLk6GJQsqaUBKTNV-1" vertex="1">
          <mxGeometry x="370" y="225" width="60" height="30" as="geometry" />
        </mxCell>
        <mxCell id="FIhfvnTf2BQYqZ3gfZuZ-23" value="Select Register" style="text;html=1;strokeColor=none;fillColor=none;align=center;verticalAlign=middle;whiteSpace=wrap;rounded=0;" parent="WIyWlLk6GJQsqaUBKTNV-1" vertex="1">
          <mxGeometry x="160" y="355" width="60" height="30" as="geometry" />
        </mxCell>
        <mxCell id="FIhfvnTf2BQYqZ3gfZuZ-24" style="edgeStyle=orthogonalEdgeStyle;rounded=0;orthogonalLoop=1;jettySize=auto;html=1;exitX=0.5;exitY=1;exitDx=0;exitDy=0;entryX=0.496;entryY=0.031;entryDx=0;entryDy=0;entryPerimeter=0;" parent="WIyWlLk6GJQsqaUBKTNV-1" source="FIhfvnTf2BQYqZ3gfZuZ-25" target="FIhfvnTf2BQYqZ3gfZuZ-27" edge="1">
          <mxGeometry relative="1" as="geometry">
            <Array as="points">
              <mxPoint x="390" y="450" />
              <mxPoint x="190" y="450" />
            </Array>
          </mxGeometry>
        </mxCell>
        <mxCell id="FIhfvnTf2BQYqZ3gfZuZ-25" value="Form page" style="rounded=1;whiteSpace=wrap;html=1;absoluteArcSize=1;arcSize=14;strokeWidth=2;" parent="WIyWlLk6GJQsqaUBKTNV-1" vertex="1">
          <mxGeometry x="340" y="300" width="100" height="100" as="geometry" />
        </mxCell>
        <mxCell id="FIhfvnTf2BQYqZ3gfZuZ-26" style="edgeStyle=orthogonalEdgeStyle;rounded=0;orthogonalLoop=1;jettySize=auto;html=1;exitX=0.5;exitY=0;exitDx=0;exitDy=0;" parent="WIyWlLk6GJQsqaUBKTNV-1" source="FIhfvnTf2BQYqZ3gfZuZ-27" target="FIhfvnTf2BQYqZ3gfZuZ-29" edge="1">
          <mxGeometry relative="1" as="geometry" />
        </mxCell>
        <mxCell id="FIhfvnTf2BQYqZ3gfZuZ-27" value="" style="verticalLabelPosition=middle;verticalAlign=middle;html=1;shape=trapezoid;perimeter=trapezoidPerimeter;whiteSpace=wrap;size=0.23;arcSize=10;flipV=1;labelPosition=center;align=center;rotation=-180;" parent="WIyWlLk6GJQsqaUBKTNV-1" vertex="1">
          <mxGeometry x="140" y="490" width="100" height="60" as="geometry" />
        </mxCell>
        <mxCell id="FIhfvnTf2BQYqZ3gfZuZ-28" value="fill out form and send" style="text;html=1;strokeColor=none;fillColor=none;align=center;verticalAlign=middle;whiteSpace=wrap;rounded=0;" parent="WIyWlLk6GJQsqaUBKTNV-1" vertex="1">
          <mxGeometry x="160" y="505" width="60" height="30" as="geometry" />
        </mxCell>
        <mxCell id="FIhfvnTf2BQYqZ3gfZuZ-29" value="Form page" style="rounded=1;whiteSpace=wrap;html=1;absoluteArcSize=1;arcSize=14;strokeWidth=2;" parent="WIyWlLk6GJQsqaUBKTNV-1" vertex="1">
          <mxGeometry x="140" y="610" width="100" height="100" as="geometry" />
        </mxCell>
        <mxCell id="FIhfvnTf2BQYqZ3gfZuZ-30" value="" style="strokeWidth=2;html=1;shape=mxgraph.flowchart.decision;whiteSpace=wrap;" parent="WIyWlLk6GJQsqaUBKTNV-1" vertex="1">
          <mxGeometry x="300" y="625" width="70" height="70" as="geometry" />
        </mxCell>
        <mxCell id="FIhfvnTf2BQYqZ3gfZuZ-31" value="Valid registration" style="text;html=1;strokeColor=none;fillColor=none;align=center;verticalAlign=middle;whiteSpace=wrap;rounded=0;" parent="WIyWlLk6GJQsqaUBKTNV-1" vertex="1">
          <mxGeometry x="305" y="640" width="60" height="30" as="geometry" />
        </mxCell>
        <mxCell id="FIhfvnTf2BQYqZ3gfZuZ-32" value="Yes" style="rounded=0;html=1;jettySize=auto;orthogonalLoop=1;fontSize=11;endArrow=block;endFill=0;endSize=8;strokeWidth=1;shadow=0;labelBackgroundColor=none;edgeStyle=orthogonalEdgeStyle;exitX=0.5;exitY=0;exitDx=0;exitDy=0;exitPerimeter=0;entryX=-0.002;entryY=0.374;entryDx=0;entryDy=0;entryPerimeter=0;" parent="WIyWlLk6GJQsqaUBKTNV-1" source="FIhfvnTf2BQYqZ3gfZuZ-30" target="FIhfvnTf2BQYqZ3gfZuZ-6" edge="1">
          <mxGeometry x="0.0004" y="15" relative="1" as="geometry">
            <mxPoint as="offset" />
            <mxPoint x="340.03" y="614.99" as="sourcePoint" />
            <mxPoint x="339.99969696969697" y="705.0142424242422" as="targetPoint" />
          </mxGeometry>
        </mxCell>
        <mxCell id="FIhfvnTf2BQYqZ3gfZuZ-33" style="edgeStyle=orthogonalEdgeStyle;rounded=0;orthogonalLoop=1;jettySize=auto;html=1;exitX=1;exitY=0.5;exitDx=0;exitDy=0;entryX=0;entryY=0.5;entryDx=0;entryDy=0;entryPerimeter=0;" parent="WIyWlLk6GJQsqaUBKTNV-1" source="FIhfvnTf2BQYqZ3gfZuZ-29" target="FIhfvnTf2BQYqZ3gfZuZ-30" edge="1">
          <mxGeometry relative="1" as="geometry" />
        </mxCell>
        <mxCell id="FIhfvnTf2BQYqZ3gfZuZ-34" style="edgeStyle=orthogonalEdgeStyle;rounded=0;orthogonalLoop=1;jettySize=auto;html=1;exitX=0;exitY=0.5;exitDx=0;exitDy=0;exitPerimeter=0;entryX=0.5;entryY=1;entryDx=0;entryDy=0;" parent="WIyWlLk6GJQsqaUBKTNV-1" source="FIhfvnTf2BQYqZ3gfZuZ-35" target="FIhfvnTf2BQYqZ3gfZuZ-29" edge="1">
          <mxGeometry relative="1" as="geometry" />
        </mxCell>
        <mxCell id="FIhfvnTf2BQYqZ3gfZuZ-35" value="Error" style="strokeWidth=2;html=1;shape=mxgraph.flowchart.start_2;whiteSpace=wrap;" parent="WIyWlLk6GJQsqaUBKTNV-1" vertex="1">
          <mxGeometry x="220" y="730" width="60" height="60" as="geometry" />
        </mxCell>
        <mxCell id="FIhfvnTf2BQYqZ3gfZuZ-36" value="No" style="rounded=0;html=1;jettySize=auto;orthogonalLoop=1;fontSize=11;endArrow=block;endFill=0;endSize=8;strokeWidth=1;shadow=0;labelBackgroundColor=none;edgeStyle=orthogonalEdgeStyle;entryX=1;entryY=0.5;entryDx=0;entryDy=0;entryPerimeter=0;exitX=0.5;exitY=1;exitDx=0;exitDy=0;exitPerimeter=0;" parent="WIyWlLk6GJQsqaUBKTNV-1" source="FIhfvnTf2BQYqZ3gfZuZ-30" target="FIhfvnTf2BQYqZ3gfZuZ-35" edge="1">
          <mxGeometry x="0.5002" y="-10" relative="1" as="geometry">
            <mxPoint as="offset" />
            <mxPoint x="334.77" y="835" as="sourcePoint" />
            <mxPoint x="334.77" y="945" as="targetPoint" />
            <Array as="points">
              <mxPoint x="335" y="760" />
              <mxPoint x="300" y="760" />
            </Array>
          </mxGeometry>
        </mxCell>
        <mxCell id="FIhfvnTf2BQYqZ3gfZuZ-37" style="edgeStyle=orthogonalEdgeStyle;rounded=0;orthogonalLoop=1;jettySize=auto;html=1;exitX=0.5;exitY=1;exitDx=0;exitDy=0;entryX=0.5;entryY=1;entryDx=0;entryDy=0;" parent="WIyWlLk6GJQsqaUBKTNV-1" source="FIhfvnTf2BQYqZ3gfZuZ-38" target="FIhfvnTf2BQYqZ3gfZuZ-39" edge="1">
          <mxGeometry relative="1" as="geometry" />
        </mxCell>
        <mxCell id="FIhfvnTf2BQYqZ3gfZuZ-38" value="Hotels searchs for locations" style="rounded=1;whiteSpace=wrap;html=1;absoluteArcSize=1;arcSize=14;strokeWidth=2;" parent="WIyWlLk6GJQsqaUBKTNV-1" vertex="1">
          <mxGeometry x="635" y="590" width="100" height="100" as="geometry" />
        </mxCell>
        <mxCell id="FIhfvnTf2BQYqZ3gfZuZ-39" value="" style="verticalLabelPosition=middle;verticalAlign=middle;html=1;shape=trapezoid;perimeter=trapezoidPerimeter;whiteSpace=wrap;size=0.23;arcSize=10;flipV=1;labelPosition=center;align=center;rotation=-180;" parent="WIyWlLk6GJQsqaUBKTNV-1" vertex="1">
          <mxGeometry x="635" y="730" width="100" height="60" as="geometry" />
        </mxCell>
        <mxCell id="FIhfvnTf2BQYqZ3gfZuZ-40" value="fill out filter fields" style="text;html=1;strokeColor=none;fillColor=none;align=center;verticalAlign=middle;whiteSpace=wrap;rounded=0;" parent="WIyWlLk6GJQsqaUBKTNV-1" vertex="1">
          <mxGeometry x="655" y="745" width="60" height="30" as="geometry" />
        </mxCell>
        <mxCell id="FIhfvnTf2BQYqZ3gfZuZ-41" value="Valid filter fields" style="strokeWidth=2;html=1;shape=mxgraph.flowchart.decision;whiteSpace=wrap;" parent="WIyWlLk6GJQsqaUBKTNV-1" vertex="1">
          <mxGeometry x="650" y="840" width="70" height="70" as="geometry" />
        </mxCell>
        <mxCell id="FIhfvnTf2BQYqZ3gfZuZ-42" style="edgeStyle=orthogonalEdgeStyle;rounded=0;orthogonalLoop=1;jettySize=auto;html=1;exitX=0.5;exitY=0;exitDx=0;exitDy=0;entryX=0.5;entryY=0;entryDx=0;entryDy=0;entryPerimeter=0;" parent="WIyWlLk6GJQsqaUBKTNV-1" source="FIhfvnTf2BQYqZ3gfZuZ-39" target="FIhfvnTf2BQYqZ3gfZuZ-41" edge="1">
          <mxGeometry relative="1" as="geometry" />
        </mxCell>
        <mxCell id="FIhfvnTf2BQYqZ3gfZuZ-43" style="edgeStyle=orthogonalEdgeStyle;rounded=0;orthogonalLoop=1;jettySize=auto;html=1;exitX=0;exitY=0.5;exitDx=0;exitDy=0;entryX=0.143;entryY=0.405;entryDx=0;entryDy=0;entryPerimeter=0;" parent="WIyWlLk6GJQsqaUBKTNV-1" source="FIhfvnTf2BQYqZ3gfZuZ-44" target="FIhfvnTf2BQYqZ3gfZuZ-53" edge="1">
          <mxGeometry relative="1" as="geometry">
            <Array as="points">
              <mxPoint x="645" y="1020" />
            </Array>
          </mxGeometry>
        </mxCell>
        <mxCell id="FIhfvnTf2BQYqZ3gfZuZ-44" value="Search results" style="rounded=1;whiteSpace=wrap;html=1;absoluteArcSize=1;arcSize=14;strokeWidth=2;" parent="WIyWlLk6GJQsqaUBKTNV-1" vertex="1">
          <mxGeometry x="645" y="980" width="95" height="90" as="geometry" />
        </mxCell>
        <mxCell id="FIhfvnTf2BQYqZ3gfZuZ-50" style="edgeStyle=orthogonalEdgeStyle;rounded=0;orthogonalLoop=1;jettySize=auto;html=1;exitX=0.5;exitY=0;exitDx=0;exitDy=0;entryX=0;entryY=0.75;entryDx=0;entryDy=0;" parent="WIyWlLk6GJQsqaUBKTNV-1" source="FIhfvnTf2BQYqZ3gfZuZ-51" target="FIhfvnTf2BQYqZ3gfZuZ-6" edge="1">
          <mxGeometry relative="1" as="geometry">
            <Array as="points">
              <mxPoint x="320" y="810" />
              <mxPoint x="400" y="810" />
              <mxPoint x="400" y="520" />
            </Array>
          </mxGeometry>
        </mxCell>
        <mxCell id="peFO1UqC1hC2nllYaE9e-25" style="edgeStyle=orthogonalEdgeStyle;rounded=0;orthogonalLoop=1;jettySize=auto;html=1;exitX=1;exitY=1;exitDx=0;exitDy=0;entryX=0.5;entryY=1;entryDx=0;entryDy=0;" edge="1" parent="WIyWlLk6GJQsqaUBKTNV-1" source="FIhfvnTf2BQYqZ3gfZuZ-51" target="FIhfvnTf2BQYqZ3gfZuZ-60">
          <mxGeometry relative="1" as="geometry" />
        </mxCell>
        <mxCell id="FIhfvnTf2BQYqZ3gfZuZ-51" value="Page Hotel with its events" style="rounded=1;whiteSpace=wrap;html=1;absoluteArcSize=1;arcSize=14;strokeWidth=2;" parent="WIyWlLk6GJQsqaUBKTNV-1" vertex="1">
          <mxGeometry x="270" y="940" width="100" height="100" as="geometry" />
        </mxCell>
        <mxCell id="FIhfvnTf2BQYqZ3gfZuZ-53" value="" style="verticalLabelPosition=middle;verticalAlign=middle;html=1;shape=trapezoid;perimeter=trapezoidPerimeter;whiteSpace=wrap;size=0.23;arcSize=10;flipV=1;labelPosition=center;align=center;rotation=-180;" parent="WIyWlLk6GJQsqaUBKTNV-1" vertex="1">
          <mxGeometry x="420" y="980" width="97" height="50" as="geometry" />
        </mxCell>
        <mxCell id="FIhfvnTf2BQYqZ3gfZuZ-54" value="Select hotels" style="text;html=1;strokeColor=none;fillColor=none;align=center;verticalAlign=middle;whiteSpace=wrap;rounded=0;" parent="WIyWlLk6GJQsqaUBKTNV-1" vertex="1">
          <mxGeometry x="437.5" y="990" width="60" height="30" as="geometry" />
        </mxCell>
        <mxCell id="FIhfvnTf2BQYqZ3gfZuZ-55" style="edgeStyle=orthogonalEdgeStyle;rounded=0;orthogonalLoop=1;jettySize=auto;html=1;entryX=1;entryY=0.75;entryDx=0;entryDy=0;exitX=1;exitY=0.25;exitDx=0;exitDy=0;" parent="WIyWlLk6GJQsqaUBKTNV-1" source="FIhfvnTf2BQYqZ3gfZuZ-53" target="FIhfvnTf2BQYqZ3gfZuZ-51" edge="1">
          <mxGeometry relative="1" as="geometry">
            <Array as="points">
              <mxPoint x="372" y="1016" />
            </Array>
            <mxPoint x="372" y="1050" as="sourcePoint" />
            <mxPoint x="287" y="1015" as="targetPoint" />
          </mxGeometry>
        </mxCell>
        <mxCell id="FIhfvnTf2BQYqZ3gfZuZ-58" value="" style="verticalLabelPosition=middle;verticalAlign=middle;html=1;shape=trapezoid;perimeter=trapezoidPerimeter;whiteSpace=wrap;size=0.23;arcSize=10;flipV=1;labelPosition=center;align=center;rotation=-180;" parent="WIyWlLk6GJQsqaUBKTNV-1" vertex="1">
          <mxGeometry x="271.5" y="840" width="97" height="50" as="geometry" />
        </mxCell>
        <mxCell id="FIhfvnTf2BQYqZ3gfZuZ-59" value="&lt;div&gt;Select return home page&lt;/div&gt;&lt;div&gt;&lt;br&gt;&lt;/div&gt;" style="text;html=1;strokeColor=none;fillColor=none;align=center;verticalAlign=middle;whiteSpace=wrap;rounded=0;" parent="WIyWlLk6GJQsqaUBKTNV-1" vertex="1">
          <mxGeometry x="284.25" y="850" width="71.5" height="40" as="geometry" />
        </mxCell>
        <mxCell id="FIhfvnTf2BQYqZ3gfZuZ-60" value="" style="verticalLabelPosition=middle;verticalAlign=middle;html=1;shape=trapezoid;perimeter=trapezoidPerimeter;whiteSpace=wrap;size=0.23;arcSize=10;flipV=1;labelPosition=center;align=center;rotation=-180;" parent="WIyWlLk6GJQsqaUBKTNV-1" vertex="1">
          <mxGeometry x="470" y="1080" width="97" height="50" as="geometry" />
        </mxCell>
        <mxCell id="FIhfvnTf2BQYqZ3gfZuZ-61" value="&lt;div&gt;Select return search results&lt;br&gt;&lt;/div&gt;&lt;div&gt;&lt;br&gt;&lt;/div&gt;" style="text;html=1;strokeColor=none;fillColor=none;align=center;verticalAlign=middle;whiteSpace=wrap;rounded=0;" parent="WIyWlLk6GJQsqaUBKTNV-1" vertex="1">
          <mxGeometry x="470" y="1090" width="97.25" height="40" as="geometry" />
        </mxCell>
        <mxCell id="FIhfvnTf2BQYqZ3gfZuZ-66" style="edgeStyle=orthogonalEdgeStyle;rounded=0;orthogonalLoop=1;jettySize=auto;html=1;entryX=1;entryY=0.5;entryDx=0;entryDy=0;exitX=1;exitY=0.5;exitDx=0;exitDy=0;" parent="WIyWlLk6GJQsqaUBKTNV-1" source="FIhfvnTf2BQYqZ3gfZuZ-2" target="FIhfvnTf2BQYqZ3gfZuZ-6" edge="1">
          <mxGeometry relative="1" as="geometry">
            <mxPoint x="305" y="80" as="sourcePoint" />
            <mxPoint x="802.52" y="514.56" as="targetPoint" />
            <Array as="points">
              <mxPoint x="802" y="80" />
              <mxPoint x="802" y="510" />
            </Array>
          </mxGeometry>
        </mxCell>
        <mxCell id="FIhfvnTf2BQYqZ3gfZuZ-67" value="No" style="rounded=0;html=1;jettySize=auto;orthogonalLoop=1;fontSize=11;endArrow=block;endFill=0;endSize=8;strokeWidth=1;shadow=0;labelBackgroundColor=none;edgeStyle=orthogonalEdgeStyle;exitX=0.5;exitY=0;exitDx=0;exitDy=0;exitPerimeter=0;" parent="WIyWlLk6GJQsqaUBKTNV-1" source="peFO1UqC1hC2nllYaE9e-20" edge="1">
          <mxGeometry x="0.1429" y="10" relative="1" as="geometry">
            <mxPoint as="offset" />
            <mxPoint x="200" y="950" as="sourcePoint" />
            <mxPoint x="270" y="950" as="targetPoint" />
            <Array as="points">
              <mxPoint x="200" y="950" />
            </Array>
          </mxGeometry>
        </mxCell>
        <mxCell id="FIhfvnTf2BQYqZ3gfZuZ-69" value="" style="strokeWidth=2;html=1;shape=mxgraph.flowchart.decision;whiteSpace=wrap;" parent="WIyWlLk6GJQsqaUBKTNV-1" vertex="1">
          <mxGeometry x="1090" y="640" width="70" height="70" as="geometry" />
        </mxCell>
        <mxCell id="FIhfvnTf2BQYqZ3gfZuZ-70" value="User logged" style="text;html=1;strokeColor=none;fillColor=none;align=center;verticalAlign=middle;whiteSpace=wrap;rounded=0;" parent="WIyWlLk6GJQsqaUBKTNV-1" vertex="1">
          <mxGeometry x="1095" y="655" width="60" height="40" as="geometry" />
        </mxCell>
        <mxCell id="FIhfvnTf2BQYqZ3gfZuZ-100" style="edgeStyle=orthogonalEdgeStyle;rounded=0;orthogonalLoop=1;jettySize=auto;html=1;exitX=0.75;exitY=1;exitDx=0;exitDy=0;entryX=1;entryY=0.5;entryDx=0;entryDy=0;" parent="WIyWlLk6GJQsqaUBKTNV-1" source="FIhfvnTf2BQYqZ3gfZuZ-71" target="FIhfvnTf2BQYqZ3gfZuZ-97" edge="1">
          <mxGeometry relative="1" as="geometry">
            <Array as="points">
              <mxPoint x="1025" y="850" />
              <mxPoint x="1070" y="850" />
              <mxPoint x="1070" y="850" />
            </Array>
          </mxGeometry>
        </mxCell>
        <mxCell id="peFO1UqC1hC2nllYaE9e-4" style="edgeStyle=orthogonalEdgeStyle;rounded=0;orthogonalLoop=1;jettySize=auto;html=1;exitX=1;exitY=0.5;exitDx=0;exitDy=0;entryX=0.5;entryY=1;entryDx=0;entryDy=0;" edge="1" parent="WIyWlLk6GJQsqaUBKTNV-1" source="FIhfvnTf2BQYqZ3gfZuZ-71" target="peFO1UqC1hC2nllYaE9e-1">
          <mxGeometry relative="1" as="geometry">
            <mxPoint x="1170" y="750" as="targetPoint" />
          </mxGeometry>
        </mxCell>
        <mxCell id="FIhfvnTf2BQYqZ3gfZuZ-71" value="&lt;div&gt;Profile Page&lt;/div&gt;" style="rounded=1;whiteSpace=wrap;html=1;absoluteArcSize=1;arcSize=14;strokeWidth=2;" parent="WIyWlLk6GJQsqaUBKTNV-1" vertex="1">
          <mxGeometry x="950" y="710" width="100" height="100" as="geometry" />
        </mxCell>
        <mxCell id="FIhfvnTf2BQYqZ3gfZuZ-72" value="" style="verticalLabelPosition=middle;verticalAlign=middle;html=1;shape=trapezoid;perimeter=trapezoidPerimeter;whiteSpace=wrap;size=0.23;arcSize=10;flipV=1;labelPosition=center;align=center;rotation=-180;" parent="WIyWlLk6GJQsqaUBKTNV-1" vertex="1">
          <mxGeometry x="950" y="550" width="100" height="60" as="geometry" />
        </mxCell>
        <mxCell id="FIhfvnTf2BQYqZ3gfZuZ-74" value="Visit my profile page" style="text;html=1;strokeColor=none;fillColor=none;align=center;verticalAlign=middle;whiteSpace=wrap;rounded=0;" parent="WIyWlLk6GJQsqaUBKTNV-1" vertex="1">
          <mxGeometry x="970" y="565" width="60" height="30" as="geometry" />
        </mxCell>
        <mxCell id="FIhfvnTf2BQYqZ3gfZuZ-76" style="edgeStyle=orthogonalEdgeStyle;rounded=0;orthogonalLoop=1;jettySize=auto;html=1;entryX=0.5;entryY=0;entryDx=0;entryDy=0;entryPerimeter=0;exitX=0;exitY=0.5;exitDx=0;exitDy=0;" parent="WIyWlLk6GJQsqaUBKTNV-1" source="FIhfvnTf2BQYqZ3gfZuZ-72" target="FIhfvnTf2BQYqZ3gfZuZ-69" edge="1">
          <mxGeometry relative="1" as="geometry">
            <mxPoint x="1040" y="580" as="sourcePoint" />
          </mxGeometry>
        </mxCell>
        <mxCell id="FIhfvnTf2BQYqZ3gfZuZ-77" value="Yes" style="rounded=0;html=1;jettySize=auto;orthogonalLoop=1;fontSize=11;endArrow=block;endFill=0;endSize=8;strokeWidth=1;shadow=0;labelBackgroundColor=none;edgeStyle=orthogonalEdgeStyle;exitX=0.501;exitY=1.022;exitDx=0;exitDy=0;exitPerimeter=0;" parent="WIyWlLk6GJQsqaUBKTNV-1" source="FIhfvnTf2BQYqZ3gfZuZ-69" edge="1">
          <mxGeometry x="0.1453" y="-10" relative="1" as="geometry">
            <mxPoint as="offset" />
            <mxPoint x="1130" y="810" as="sourcePoint" />
            <mxPoint x="1050" y="730" as="targetPoint" />
            <Array as="points">
              <mxPoint x="1125" y="730" />
              <mxPoint x="1050" y="730" />
            </Array>
          </mxGeometry>
        </mxCell>
        <mxCell id="FIhfvnTf2BQYqZ3gfZuZ-78" value="No" style="rounded=0;html=1;jettySize=auto;orthogonalLoop=1;fontSize=11;endArrow=block;endFill=0;endSize=8;strokeWidth=1;shadow=0;labelBackgroundColor=none;edgeStyle=orthogonalEdgeStyle;entryX=-0.018;entryY=0.207;entryDx=0;entryDy=0;entryPerimeter=0;exitX=1;exitY=0.5;exitDx=0;exitDy=0;exitPerimeter=0;" parent="WIyWlLk6GJQsqaUBKTNV-1" source="FIhfvnTf2BQYqZ3gfZuZ-69" target="FIhfvnTf2BQYqZ3gfZuZ-8" edge="1">
          <mxGeometry x="-0.8526" y="20" relative="1" as="geometry">
            <mxPoint as="offset" />
            <mxPoint x="1096.47" y="465" as="sourcePoint" />
            <mxPoint x="1163.5" y="190" as="targetPoint" />
            <Array as="points">
              <mxPoint x="1200" y="675" />
              <mxPoint x="1200" y="435" />
              <mxPoint x="1086" y="435" />
              <mxPoint x="1086" />
              <mxPoint x="80" />
              <mxPoint x="80" y="211" />
            </Array>
          </mxGeometry>
        </mxCell>
        <mxCell id="FIhfvnTf2BQYqZ3gfZuZ-79" value="" style="strokeWidth=2;html=1;shape=mxgraph.flowchart.decision;whiteSpace=wrap;" parent="WIyWlLk6GJQsqaUBKTNV-1" vertex="1">
          <mxGeometry x="842" y="620" width="70" height="70" as="geometry" />
        </mxCell>
        <mxCell id="FIhfvnTf2BQYqZ3gfZuZ-80" value="Confirm changes" style="text;html=1;strokeColor=none;fillColor=none;align=center;verticalAlign=middle;whiteSpace=wrap;rounded=0;" parent="WIyWlLk6GJQsqaUBKTNV-1" vertex="1">
          <mxGeometry x="847" y="635" width="60" height="40" as="geometry" />
        </mxCell>
        <mxCell id="FIhfvnTf2BQYqZ3gfZuZ-82" value="" style="verticalLabelPosition=middle;verticalAlign=middle;html=1;shape=trapezoid;perimeter=trapezoidPerimeter;whiteSpace=wrap;size=0.23;arcSize=10;flipV=1;labelPosition=center;align=center;rotation=-180;" parent="WIyWlLk6GJQsqaUBKTNV-1" vertex="1">
          <mxGeometry x="812" y="730" width="100" height="60" as="geometry" />
        </mxCell>
        <mxCell id="FIhfvnTf2BQYqZ3gfZuZ-83" value="Edit profile" style="text;html=1;strokeColor=none;fillColor=none;align=center;verticalAlign=middle;whiteSpace=wrap;rounded=0;" parent="WIyWlLk6GJQsqaUBKTNV-1" vertex="1">
          <mxGeometry x="832" y="745" width="60" height="30" as="geometry" />
        </mxCell>
        <mxCell id="FIhfvnTf2BQYqZ3gfZuZ-84" style="edgeStyle=orthogonalEdgeStyle;rounded=0;orthogonalLoop=1;jettySize=auto;html=1;exitX=0;exitY=0.5;exitDx=0;exitDy=0;entryX=0;entryY=0.5;entryDx=0;entryDy=0;" parent="WIyWlLk6GJQsqaUBKTNV-1" source="FIhfvnTf2BQYqZ3gfZuZ-71" target="FIhfvnTf2BQYqZ3gfZuZ-82" edge="1">
          <mxGeometry relative="1" as="geometry" />
        </mxCell>
        <mxCell id="FIhfvnTf2BQYqZ3gfZuZ-85" value="Yes" style="rounded=0;html=1;jettySize=auto;orthogonalLoop=1;fontSize=11;endArrow=block;endFill=0;endSize=8;strokeWidth=1;shadow=0;labelBackgroundColor=none;edgeStyle=orthogonalEdgeStyle;entryX=0.5;entryY=0;entryDx=0;entryDy=0;exitX=1;exitY=0.5;exitDx=0;exitDy=0;exitPerimeter=0;" parent="WIyWlLk6GJQsqaUBKTNV-1" source="FIhfvnTf2BQYqZ3gfZuZ-79" target="FIhfvnTf2BQYqZ3gfZuZ-71" edge="1">
          <mxGeometry x="-0.5366" y="15" relative="1" as="geometry">
            <mxPoint as="offset" />
            <mxPoint x="969.98" y="645.98" as="sourcePoint" />
            <mxPoint x="894.98" y="694.98" as="targetPoint" />
            <Array as="points">
              <mxPoint x="1000" y="655" />
            </Array>
          </mxGeometry>
        </mxCell>
        <mxCell id="FIhfvnTf2BQYqZ3gfZuZ-86" value="No" style="rounded=0;html=1;jettySize=auto;orthogonalLoop=1;fontSize=11;endArrow=block;endFill=0;endSize=8;strokeWidth=1;shadow=0;labelBackgroundColor=none;edgeStyle=orthogonalEdgeStyle;entryX=0.883;entryY=0.489;entryDx=0;entryDy=0;entryPerimeter=0;exitX=0.011;exitY=0.473;exitDx=0;exitDy=0;exitPerimeter=0;" parent="WIyWlLk6GJQsqaUBKTNV-1" source="FIhfvnTf2BQYqZ3gfZuZ-79" target="FIhfvnTf2BQYqZ3gfZuZ-82" edge="1">
          <mxGeometry x="-0.7019" y="-15" relative="1" as="geometry">
            <mxPoint as="offset" />
            <mxPoint x="825" y="604.97" as="sourcePoint" />
            <mxPoint x="770" y="669.97" as="targetPoint" />
            <Array as="points">
              <mxPoint x="843" y="655" />
              <mxPoint x="770" y="655" />
              <mxPoint x="770" y="759" />
            </Array>
          </mxGeometry>
        </mxCell>
        <mxCell id="FIhfvnTf2BQYqZ3gfZuZ-87" style="edgeStyle=orthogonalEdgeStyle;rounded=0;orthogonalLoop=1;jettySize=auto;html=1;exitX=0.348;exitY=-0.002;exitDx=0;exitDy=0;entryX=0.5;entryY=1;entryDx=0;entryDy=0;entryPerimeter=0;exitPerimeter=0;" parent="WIyWlLk6GJQsqaUBKTNV-1" source="FIhfvnTf2BQYqZ3gfZuZ-82" target="FIhfvnTf2BQYqZ3gfZuZ-79" edge="1">
          <mxGeometry relative="1" as="geometry">
            <Array as="points">
              <mxPoint x="877" y="710" />
              <mxPoint x="877" y="710" />
            </Array>
          </mxGeometry>
        </mxCell>
        <mxCell id="FIhfvnTf2BQYqZ3gfZuZ-88" value="" style="verticalLabelPosition=middle;verticalAlign=middle;html=1;shape=trapezoid;perimeter=trapezoidPerimeter;whiteSpace=wrap;size=0.23;arcSize=10;flipV=1;labelPosition=center;align=center;rotation=-180;" parent="WIyWlLk6GJQsqaUBKTNV-1" vertex="1">
          <mxGeometry x="960" y="890" width="100" height="60" as="geometry" />
        </mxCell>
        <mxCell id="FIhfvnTf2BQYqZ3gfZuZ-89" style="edgeStyle=orthogonalEdgeStyle;rounded=0;orthogonalLoop=1;jettySize=auto;html=1;exitX=0.553;exitY=1.002;exitDx=0;exitDy=0;entryX=0.541;entryY=-0.004;entryDx=0;entryDy=0;entryPerimeter=0;exitPerimeter=0;" parent="WIyWlLk6GJQsqaUBKTNV-1" source="FIhfvnTf2BQYqZ3gfZuZ-71" target="FIhfvnTf2BQYqZ3gfZuZ-88" edge="1">
          <mxGeometry relative="1" as="geometry" />
        </mxCell>
        <mxCell id="FIhfvnTf2BQYqZ3gfZuZ-90" value="Delete profile" style="text;html=1;strokeColor=none;fillColor=none;align=center;verticalAlign=middle;whiteSpace=wrap;rounded=0;" parent="WIyWlLk6GJQsqaUBKTNV-1" vertex="1">
          <mxGeometry x="980" y="905" width="60" height="30" as="geometry" />
        </mxCell>
        <mxCell id="FIhfvnTf2BQYqZ3gfZuZ-91" value="" style="strokeWidth=2;html=1;shape=mxgraph.flowchart.decision;whiteSpace=wrap;" parent="WIyWlLk6GJQsqaUBKTNV-1" vertex="1">
          <mxGeometry x="827" y="885" width="70" height="70" as="geometry" />
        </mxCell>
        <mxCell id="FIhfvnTf2BQYqZ3gfZuZ-92" value="Confirm delete" style="text;html=1;strokeColor=none;fillColor=none;align=center;verticalAlign=middle;whiteSpace=wrap;rounded=0;" parent="WIyWlLk6GJQsqaUBKTNV-1" vertex="1">
          <mxGeometry x="832" y="900" width="60" height="40" as="geometry" />
        </mxCell>
        <mxCell id="FIhfvnTf2BQYqZ3gfZuZ-93" value="Yes" style="rounded=0;html=1;jettySize=auto;orthogonalLoop=1;fontSize=11;endArrow=block;endFill=0;endSize=8;strokeWidth=1;shadow=0;labelBackgroundColor=none;edgeStyle=orthogonalEdgeStyle;exitX=-0.011;exitY=0.504;exitDx=0;exitDy=0;exitPerimeter=0;" parent="WIyWlLk6GJQsqaUBKTNV-1" source="FIhfvnTf2BQYqZ3gfZuZ-91" edge="1">
          <mxGeometry x="-0.6327" y="-20" relative="1" as="geometry">
            <mxPoint as="offset" />
            <mxPoint x="856.61" y="990" as="sourcePoint" />
            <mxPoint x="700" y="530" as="targetPoint" />
            <Array as="points">
              <mxPoint x="821" y="920" />
              <mxPoint x="760" y="920" />
              <mxPoint x="760" y="580" />
              <mxPoint x="700" y="580" />
            </Array>
          </mxGeometry>
        </mxCell>
        <mxCell id="FIhfvnTf2BQYqZ3gfZuZ-94" value="No" style="rounded=0;html=1;jettySize=auto;orthogonalLoop=1;fontSize=11;endArrow=block;endFill=0;endSize=8;strokeWidth=1;shadow=0;labelBackgroundColor=none;edgeStyle=orthogonalEdgeStyle;exitX=0.5;exitY=0;exitDx=0;exitDy=0;exitPerimeter=0;entryX=-0.007;entryY=0.748;entryDx=0;entryDy=0;entryPerimeter=0;" parent="WIyWlLk6GJQsqaUBKTNV-1" source="FIhfvnTf2BQYqZ3gfZuZ-91" target="FIhfvnTf2BQYqZ3gfZuZ-71" edge="1">
          <mxGeometry x="0.3333" y="20" relative="1" as="geometry">
            <mxPoint as="offset" />
            <mxPoint x="867" y="824.97" as="sourcePoint" />
            <mxPoint x="910" y="830" as="targetPoint" />
            <Array as="points">
              <mxPoint x="862" y="870" />
              <mxPoint x="920" y="870" />
              <mxPoint x="920" y="785" />
            </Array>
          </mxGeometry>
        </mxCell>
        <mxCell id="FIhfvnTf2BQYqZ3gfZuZ-95" style="edgeStyle=orthogonalEdgeStyle;rounded=0;orthogonalLoop=1;jettySize=auto;html=1;exitX=1;exitY=0.5;exitDx=0;exitDy=0;entryX=1;entryY=0.5;entryDx=0;entryDy=0;entryPerimeter=0;" parent="WIyWlLk6GJQsqaUBKTNV-1" source="FIhfvnTf2BQYqZ3gfZuZ-88" target="FIhfvnTf2BQYqZ3gfZuZ-91" edge="1">
          <mxGeometry relative="1" as="geometry">
            <mxPoint x="900" y="920" as="targetPoint" />
          </mxGeometry>
        </mxCell>
        <mxCell id="FIhfvnTf2BQYqZ3gfZuZ-101" style="edgeStyle=orthogonalEdgeStyle;rounded=0;orthogonalLoop=1;jettySize=auto;html=1;exitX=0.5;exitY=1;exitDx=0;exitDy=0;entryX=1;entryY=0.75;entryDx=0;entryDy=0;" parent="WIyWlLk6GJQsqaUBKTNV-1" source="FIhfvnTf2BQYqZ3gfZuZ-97" target="FIhfvnTf2BQYqZ3gfZuZ-6" edge="1">
          <mxGeometry relative="1" as="geometry">
            <Array as="points">
              <mxPoint x="1270" y="520" />
            </Array>
          </mxGeometry>
        </mxCell>
        <mxCell id="FIhfvnTf2BQYqZ3gfZuZ-97" value="" style="verticalLabelPosition=middle;verticalAlign=middle;html=1;shape=trapezoid;perimeter=trapezoidPerimeter;whiteSpace=wrap;size=0.23;arcSize=10;flipV=1;labelPosition=center;align=center;rotation=-180;" parent="WIyWlLk6GJQsqaUBKTNV-1" vertex="1">
          <mxGeometry x="1220" y="820" width="100" height="60" as="geometry" />
        </mxCell>
        <mxCell id="FIhfvnTf2BQYqZ3gfZuZ-98" value="&lt;div&gt;Return Home page&lt;/div&gt;" style="text;html=1;strokeColor=none;fillColor=none;align=center;verticalAlign=middle;whiteSpace=wrap;rounded=0;" parent="WIyWlLk6GJQsqaUBKTNV-1" vertex="1">
          <mxGeometry x="1240" y="835" width="60" height="30" as="geometry" />
        </mxCell>
        <mxCell id="FIhfvnTf2BQYqZ3gfZuZ-103" style="edgeStyle=orthogonalEdgeStyle;rounded=0;orthogonalLoop=1;jettySize=auto;html=1;entryX=0;entryY=0.75;entryDx=0;entryDy=0;" parent="WIyWlLk6GJQsqaUBKTNV-1" target="FIhfvnTf2BQYqZ3gfZuZ-44" edge="1">
          <mxGeometry relative="1" as="geometry">
            <mxPoint x="550" y="1090" as="sourcePoint" />
            <mxPoint x="600" y="1070" as="targetPoint" />
            <Array as="points">
              <mxPoint x="600" y="1090" />
              <mxPoint x="600" y="1048" />
            </Array>
          </mxGeometry>
        </mxCell>
        <mxCell id="peFO1UqC1hC2nllYaE9e-8" style="edgeStyle=orthogonalEdgeStyle;rounded=0;orthogonalLoop=1;jettySize=auto;html=1;exitX=0;exitY=0.5;exitDx=0;exitDy=0;entryX=0;entryY=0.5;entryDx=0;entryDy=0;" edge="1" parent="WIyWlLk6GJQsqaUBKTNV-1" source="peFO1UqC1hC2nllYaE9e-0" target="peFO1UqC1hC2nllYaE9e-6">
          <mxGeometry relative="1" as="geometry" />
        </mxCell>
        <mxCell id="peFO1UqC1hC2nllYaE9e-38" style="edgeStyle=orthogonalEdgeStyle;rounded=0;orthogonalLoop=1;jettySize=auto;html=1;exitX=1;exitY=0.5;exitDx=0;exitDy=0;entryX=0.5;entryY=1;entryDx=0;entryDy=0;" edge="1" parent="WIyWlLk6GJQsqaUBKTNV-1" source="peFO1UqC1hC2nllYaE9e-0" target="peFO1UqC1hC2nllYaE9e-16">
          <mxGeometry relative="1" as="geometry" />
        </mxCell>
        <mxCell id="peFO1UqC1hC2nllYaE9e-0" value="&lt;div&gt;My Hotels Page&lt;/div&gt;" style="rounded=1;whiteSpace=wrap;html=1;absoluteArcSize=1;arcSize=14;strokeWidth=2;" vertex="1" parent="WIyWlLk6GJQsqaUBKTNV-1">
          <mxGeometry x="1093" y="1010" width="100" height="100" as="geometry" />
        </mxCell>
        <mxCell id="peFO1UqC1hC2nllYaE9e-1" value="" style="verticalLabelPosition=middle;verticalAlign=middle;html=1;shape=trapezoid;perimeter=trapezoidPerimeter;whiteSpace=wrap;size=0.23;arcSize=10;flipV=1;labelPosition=center;align=center;rotation=-180;" vertex="1" parent="WIyWlLk6GJQsqaUBKTNV-1">
          <mxGeometry x="1095" y="920" width="97" height="50" as="geometry" />
        </mxCell>
        <mxCell id="peFO1UqC1hC2nllYaE9e-5" style="edgeStyle=orthogonalEdgeStyle;rounded=0;orthogonalLoop=1;jettySize=auto;html=1;exitX=0.5;exitY=1;exitDx=0;exitDy=0;entryX=0.5;entryY=0;entryDx=0;entryDy=0;" edge="1" parent="WIyWlLk6GJQsqaUBKTNV-1" source="peFO1UqC1hC2nllYaE9e-2" target="peFO1UqC1hC2nllYaE9e-0">
          <mxGeometry relative="1" as="geometry" />
        </mxCell>
        <mxCell id="peFO1UqC1hC2nllYaE9e-2" value="&lt;div&gt;Visit my Hotels&lt;/div&gt;" style="text;html=1;strokeColor=none;fillColor=none;align=center;verticalAlign=middle;whiteSpace=wrap;rounded=0;" vertex="1" parent="WIyWlLk6GJQsqaUBKTNV-1">
          <mxGeometry x="1095" y="930" width="97.25" height="40" as="geometry" />
        </mxCell>
        <mxCell id="peFO1UqC1hC2nllYaE9e-6" value="" style="verticalLabelPosition=middle;verticalAlign=middle;html=1;shape=trapezoid;perimeter=trapezoidPerimeter;whiteSpace=wrap;size=0.23;arcSize=10;flipV=1;labelPosition=center;align=center;rotation=-180;" vertex="1" parent="WIyWlLk6GJQsqaUBKTNV-1">
          <mxGeometry x="940" y="1030" width="100" height="60" as="geometry" />
        </mxCell>
        <mxCell id="peFO1UqC1hC2nllYaE9e-7" value="Create&lt;br&gt;Update&lt;br&gt;Delete" style="text;html=1;strokeColor=none;fillColor=none;align=center;verticalAlign=middle;whiteSpace=wrap;rounded=0;" vertex="1" parent="WIyWlLk6GJQsqaUBKTNV-1">
          <mxGeometry x="960" y="1045" width="60" height="30" as="geometry" />
        </mxCell>
        <mxCell id="peFO1UqC1hC2nllYaE9e-9" value="" style="strokeWidth=2;html=1;shape=mxgraph.flowchart.decision;whiteSpace=wrap;" vertex="1" parent="WIyWlLk6GJQsqaUBKTNV-1">
          <mxGeometry x="945" y="1115" width="90" height="90" as="geometry" />
        </mxCell>
        <mxCell id="peFO1UqC1hC2nllYaE9e-10" value="Fill data confirm changes" style="text;html=1;strokeColor=none;fillColor=none;align=center;verticalAlign=middle;whiteSpace=wrap;rounded=0;" vertex="1" parent="WIyWlLk6GJQsqaUBKTNV-1">
          <mxGeometry x="960" y="1140" width="60" height="40" as="geometry" />
        </mxCell>
        <mxCell id="peFO1UqC1hC2nllYaE9e-12" style="edgeStyle=orthogonalEdgeStyle;rounded=0;orthogonalLoop=1;jettySize=auto;html=1;exitX=0.5;exitY=0;exitDx=0;exitDy=0;entryX=0.5;entryY=0;entryDx=0;entryDy=0;entryPerimeter=0;" edge="1" parent="WIyWlLk6GJQsqaUBKTNV-1" source="peFO1UqC1hC2nllYaE9e-6" target="peFO1UqC1hC2nllYaE9e-9">
          <mxGeometry relative="1" as="geometry" />
        </mxCell>
        <mxCell id="peFO1UqC1hC2nllYaE9e-14" value="Yes" style="rounded=0;html=1;jettySize=auto;orthogonalLoop=1;fontSize=11;endArrow=block;endFill=0;endSize=8;strokeWidth=1;shadow=0;labelBackgroundColor=none;edgeStyle=orthogonalEdgeStyle;exitX=1;exitY=0.5;exitDx=0;exitDy=0;exitPerimeter=0;" edge="1" parent="WIyWlLk6GJQsqaUBKTNV-1" source="peFO1UqC1hC2nllYaE9e-9">
          <mxGeometry x="-0.6774" y="10" relative="1" as="geometry">
            <mxPoint as="offset" />
            <mxPoint x="1266" y="1500" as="sourcePoint" />
            <mxPoint x="1140" y="1110" as="targetPoint" />
            <Array as="points">
              <mxPoint x="1140" y="1160" />
            </Array>
          </mxGeometry>
        </mxCell>
        <mxCell id="peFO1UqC1hC2nllYaE9e-15" value="No" style="rounded=0;html=1;jettySize=auto;orthogonalLoop=1;fontSize=11;endArrow=block;endFill=0;endSize=8;strokeWidth=1;shadow=0;labelBackgroundColor=none;edgeStyle=orthogonalEdgeStyle;exitX=0;exitY=0.5;exitDx=0;exitDy=0;exitPerimeter=0;entryX=1;entryY=0.75;entryDx=0;entryDy=0;" edge="1" parent="WIyWlLk6GJQsqaUBKTNV-1" source="peFO1UqC1hC2nllYaE9e-9" target="peFO1UqC1hC2nllYaE9e-6">
          <mxGeometry x="-0.7834" y="-10" relative="1" as="geometry">
            <mxPoint as="offset" />
            <mxPoint x="1045" y="1170" as="sourcePoint" />
            <mxPoint x="1150" y="1120" as="targetPoint" />
            <Array as="points">
              <mxPoint x="890" y="1160" />
              <mxPoint x="890" y="1050" />
            </Array>
          </mxGeometry>
        </mxCell>
        <mxCell id="peFO1UqC1hC2nllYaE9e-16" value="" style="verticalLabelPosition=middle;verticalAlign=middle;html=1;shape=trapezoid;perimeter=trapezoidPerimeter;whiteSpace=wrap;size=0.23;arcSize=10;flipV=1;labelPosition=center;align=center;rotation=-180;" vertex="1" parent="WIyWlLk6GJQsqaUBKTNV-1">
          <mxGeometry x="1155" y="1210" width="117" height="50" as="geometry" />
        </mxCell>
        <mxCell id="peFO1UqC1hC2nllYaE9e-39" style="edgeStyle=orthogonalEdgeStyle;rounded=0;orthogonalLoop=1;jettySize=auto;html=1;exitX=0;exitY=0.5;exitDx=0;exitDy=0;" edge="1" parent="WIyWlLk6GJQsqaUBKTNV-1" source="peFO1UqC1hC2nllYaE9e-17">
          <mxGeometry relative="1" as="geometry">
            <mxPoint x="350" y="1040" as="targetPoint" />
            <Array as="points">
              <mxPoint x="1165" y="1230" />
              <mxPoint x="350" y="1230" />
              <mxPoint x="350" y="1040" />
            </Array>
          </mxGeometry>
        </mxCell>
        <mxCell id="peFO1UqC1hC2nllYaE9e-17" value="&lt;div&gt;View&amp;nbsp;&lt;/div&gt;&lt;div&gt;Hotel Page with its events&lt;/div&gt;" style="text;html=1;strokeColor=none;fillColor=none;align=center;verticalAlign=middle;whiteSpace=wrap;rounded=0;" vertex="1" parent="WIyWlLk6GJQsqaUBKTNV-1">
          <mxGeometry x="1164.8700000000001" y="1220" width="97.25" height="40" as="geometry" />
        </mxCell>
        <mxCell id="peFO1UqC1hC2nllYaE9e-20" value="" style="strokeWidth=2;html=1;shape=mxgraph.flowchart.decision;whiteSpace=wrap;" vertex="1" parent="WIyWlLk6GJQsqaUBKTNV-1">
          <mxGeometry x="165" y="955" width="70" height="70" as="geometry" />
        </mxCell>
        <mxCell id="peFO1UqC1hC2nllYaE9e-21" value="User logged" style="text;html=1;strokeColor=none;fillColor=none;align=center;verticalAlign=middle;whiteSpace=wrap;rounded=0;" vertex="1" parent="WIyWlLk6GJQsqaUBKTNV-1">
          <mxGeometry x="170" y="965" width="60" height="45" as="geometry" />
        </mxCell>
        <mxCell id="peFO1UqC1hC2nllYaE9e-26" style="edgeStyle=orthogonalEdgeStyle;rounded=0;orthogonalLoop=1;jettySize=auto;html=1;exitX=0;exitY=0.5;exitDx=0;exitDy=0;" edge="1" parent="WIyWlLk6GJQsqaUBKTNV-1" source="FIhfvnTf2BQYqZ3gfZuZ-51" target="peFO1UqC1hC2nllYaE9e-20">
          <mxGeometry relative="1" as="geometry" />
        </mxCell>
        <mxCell id="peFO1UqC1hC2nllYaE9e-29" value="Yes" style="rounded=0;html=1;jettySize=auto;orthogonalLoop=1;fontSize=11;endArrow=block;endFill=0;endSize=8;strokeWidth=1;shadow=0;labelBackgroundColor=none;edgeStyle=orthogonalEdgeStyle;entryX=0.5;entryY=0;entryDx=0;entryDy=0;exitX=0.5;exitY=1;exitDx=0;exitDy=0;exitPerimeter=0;" edge="1" parent="WIyWlLk6GJQsqaUBKTNV-1" source="peFO1UqC1hC2nllYaE9e-20" target="peFO1UqC1hC2nllYaE9e-41">
          <mxGeometry x="-0.1522" y="-15" relative="1" as="geometry">
            <mxPoint as="offset" />
            <mxPoint x="694.75" y="920" as="sourcePoint" />
            <mxPoint x="200" y="1080" as="targetPoint" />
            <Array as="points">
              <mxPoint x="200" y="1050" />
              <mxPoint x="200" y="1050" />
            </Array>
          </mxGeometry>
        </mxCell>
        <mxCell id="peFO1UqC1hC2nllYaE9e-32" value="" style="strokeWidth=2;html=1;shape=mxgraph.flowchart.decision;whiteSpace=wrap;" vertex="1" parent="WIyWlLk6GJQsqaUBKTNV-1">
          <mxGeometry x="155" y="1150" width="90" height="90" as="geometry" />
        </mxCell>
        <mxCell id="peFO1UqC1hC2nllYaE9e-33" value="Edit data confirm changes" style="text;html=1;strokeColor=none;fillColor=none;align=center;verticalAlign=middle;whiteSpace=wrap;rounded=0;" vertex="1" parent="WIyWlLk6GJQsqaUBKTNV-1">
          <mxGeometry x="170" y="1175" width="60" height="40" as="geometry" />
        </mxCell>
        <mxCell id="peFO1UqC1hC2nllYaE9e-35" value="Yes" style="rounded=0;html=1;jettySize=auto;orthogonalLoop=1;fontSize=11;endArrow=block;endFill=0;endSize=8;strokeWidth=1;shadow=0;labelBackgroundColor=none;edgeStyle=orthogonalEdgeStyle;exitX=1;exitY=0.5;exitDx=0;exitDy=0;exitPerimeter=0;entryX=0.25;entryY=1;entryDx=0;entryDy=0;" edge="1" parent="WIyWlLk6GJQsqaUBKTNV-1" source="peFO1UqC1hC2nllYaE9e-32" target="FIhfvnTf2BQYqZ3gfZuZ-51">
          <mxGeometry x="-0.6774" y="10" relative="1" as="geometry">
            <mxPoint as="offset" />
            <mxPoint x="476" y="1619" as="sourcePoint" />
            <mxPoint x="350" y="1229" as="targetPoint" />
            <Array as="points">
              <mxPoint x="295" y="1195" />
            </Array>
          </mxGeometry>
        </mxCell>
        <mxCell id="peFO1UqC1hC2nllYaE9e-36" value="No" style="rounded=0;html=1;jettySize=auto;orthogonalLoop=1;fontSize=11;endArrow=block;endFill=0;endSize=8;strokeWidth=1;shadow=0;labelBackgroundColor=none;edgeStyle=orthogonalEdgeStyle;exitX=0;exitY=0.5;exitDx=0;exitDy=0;exitPerimeter=0;entryX=0;entryY=1;entryDx=0;entryDy=0;" edge="1" parent="WIyWlLk6GJQsqaUBKTNV-1" source="peFO1UqC1hC2nllYaE9e-32" target="peFO1UqC1hC2nllYaE9e-41">
          <mxGeometry x="0.0678" y="15" relative="1" as="geometry">
            <mxPoint as="offset" />
            <mxPoint x="150" y="1160" as="sourcePoint" />
            <mxPoint x="120" y="1090" as="targetPoint" />
            <Array as="points">
              <mxPoint x="155" y="1160" />
              <mxPoint x="150" y="1160" />
            </Array>
          </mxGeometry>
        </mxCell>
        <mxCell id="peFO1UqC1hC2nllYaE9e-40" style="edgeStyle=orthogonalEdgeStyle;rounded=0;orthogonalLoop=1;jettySize=auto;html=1;exitX=0.5;exitY=1;exitDx=0;exitDy=0;entryX=0.5;entryY=0;entryDx=0;entryDy=0;entryPerimeter=0;" edge="1" parent="WIyWlLk6GJQsqaUBKTNV-1" source="peFO1UqC1hC2nllYaE9e-41" target="peFO1UqC1hC2nllYaE9e-32">
          <mxGeometry relative="1" as="geometry">
            <mxPoint x="200" y="1120" as="sourcePoint" />
          </mxGeometry>
        </mxCell>
        <mxCell id="peFO1UqC1hC2nllYaE9e-41" value="Edit Hotel" style="rounded=1;whiteSpace=wrap;html=1;absoluteArcSize=1;arcSize=14;strokeWidth=2;" vertex="1" parent="WIyWlLk6GJQsqaUBKTNV-1">
          <mxGeometry x="150" y="1060" width="100" height="55" as="geometry" />
        </mxCell>
        <mxCell id="peFO1UqC1hC2nllYaE9e-50" style="edgeStyle=orthogonalEdgeStyle;rounded=0;orthogonalLoop=1;jettySize=auto;html=1;entryX=0.5;entryY=0;entryDx=0;entryDy=0;" edge="1" parent="WIyWlLk6GJQsqaUBKTNV-1" source="peFO1UqC1hC2nllYaE9e-44" target="peFO1UqC1hC2nllYaE9e-45">
          <mxGeometry relative="1" as="geometry" />
        </mxCell>
        <mxCell id="peFO1UqC1hC2nllYaE9e-59" style="edgeStyle=orthogonalEdgeStyle;rounded=0;orthogonalLoop=1;jettySize=auto;html=1;exitX=0.5;exitY=1;exitDx=0;exitDy=0;entryX=0.5;entryY=0;entryDx=0;entryDy=0;" edge="1" parent="WIyWlLk6GJQsqaUBKTNV-1" source="peFO1UqC1hC2nllYaE9e-44" target="peFO1UqC1hC2nllYaE9e-56">
          <mxGeometry relative="1" as="geometry" />
        </mxCell>
        <mxCell id="peFO1UqC1hC2nllYaE9e-60" style="edgeStyle=orthogonalEdgeStyle;rounded=0;orthogonalLoop=1;jettySize=auto;html=1;exitX=0.5;exitY=1;exitDx=0;exitDy=0;entryX=0.5;entryY=0;entryDx=0;entryDy=0;" edge="1" parent="WIyWlLk6GJQsqaUBKTNV-1" source="peFO1UqC1hC2nllYaE9e-44" target="peFO1UqC1hC2nllYaE9e-57">
          <mxGeometry relative="1" as="geometry" />
        </mxCell>
        <mxCell id="peFO1UqC1hC2nllYaE9e-62" style="edgeStyle=orthogonalEdgeStyle;rounded=0;orthogonalLoop=1;jettySize=auto;html=1;exitX=0.5;exitY=1;exitDx=0;exitDy=0;" edge="1" parent="WIyWlLk6GJQsqaUBKTNV-1" source="peFO1UqC1hC2nllYaE9e-44" target="peFO1UqC1hC2nllYaE9e-46">
          <mxGeometry relative="1" as="geometry" />
        </mxCell>
        <mxCell id="peFO1UqC1hC2nllYaE9e-44" value="USER WITHOUT LOGIN" style="rounded=1;whiteSpace=wrap;html=1;" vertex="1" parent="WIyWlLk6GJQsqaUBKTNV-1">
          <mxGeometry x="320.37" y="-400" width="120" height="60" as="geometry" />
        </mxCell>
        <mxCell id="peFO1UqC1hC2nllYaE9e-45" value="Index" style="rounded=1;whiteSpace=wrap;html=1;" vertex="1" parent="WIyWlLk6GJQsqaUBKTNV-1">
          <mxGeometry x="390.37" y="-284" width="120" height="60" as="geometry" />
        </mxCell>
        <mxCell id="peFO1UqC1hC2nllYaE9e-54" style="rounded=0;orthogonalLoop=1;jettySize=auto;html=1;exitX=0.75;exitY=1;exitDx=0;exitDy=0;entryX=0;entryY=0;entryDx=0;entryDy=0;" edge="1" parent="WIyWlLk6GJQsqaUBKTNV-1" source="peFO1UqC1hC2nllYaE9e-45" target="peFO1UqC1hC2nllYaE9e-53">
          <mxGeometry relative="1" as="geometry">
            <mxPoint x="454.37" y="-223.9999999999999" as="sourcePoint" />
          </mxGeometry>
        </mxCell>
        <mxCell id="peFO1UqC1hC2nllYaE9e-66" style="rounded=0;orthogonalLoop=1;jettySize=auto;html=1;exitX=0;exitY=0.75;exitDx=0;exitDy=0;entryX=0.5;entryY=0;entryDx=0;entryDy=0;" edge="1" parent="WIyWlLk6GJQsqaUBKTNV-1" source="peFO1UqC1hC2nllYaE9e-46" target="peFO1UqC1hC2nllYaE9e-53">
          <mxGeometry relative="1" as="geometry" />
        </mxCell>
        <mxCell id="peFO1UqC1hC2nllYaE9e-67" style="edgeStyle=orthogonalEdgeStyle;rounded=0;orthogonalLoop=1;jettySize=auto;html=1;exitX=0.5;exitY=1;exitDx=0;exitDy=0;entryX=0.5;entryY=0;entryDx=0;entryDy=0;" edge="1" parent="WIyWlLk6GJQsqaUBKTNV-1" source="peFO1UqC1hC2nllYaE9e-46" target="peFO1UqC1hC2nllYaE9e-48">
          <mxGeometry relative="1" as="geometry" />
        </mxCell>
        <mxCell id="peFO1UqC1hC2nllYaE9e-46" value="Hotels List" style="rounded=1;whiteSpace=wrap;html=1;" vertex="1" parent="WIyWlLk6GJQsqaUBKTNV-1">
          <mxGeometry x="545.37" y="-284" width="120" height="60" as="geometry" />
        </mxCell>
        <mxCell id="peFO1UqC1hC2nllYaE9e-48" value="Hotel Page with Private and Public Events" style="rounded=1;whiteSpace=wrap;html=1;" vertex="1" parent="WIyWlLk6GJQsqaUBKTNV-1">
          <mxGeometry x="545.37" y="-110" width="120" height="60" as="geometry" />
        </mxCell>
        <mxCell id="peFO1UqC1hC2nllYaE9e-65" style="rounded=0;orthogonalLoop=1;jettySize=auto;html=1;exitX=1;exitY=0;exitDx=0;exitDy=0;entryX=0.25;entryY=1;entryDx=0;entryDy=0;" edge="1" parent="WIyWlLk6GJQsqaUBKTNV-1" source="peFO1UqC1hC2nllYaE9e-53" target="peFO1UqC1hC2nllYaE9e-46">
          <mxGeometry relative="1" as="geometry" />
        </mxCell>
        <mxCell id="peFO1UqC1hC2nllYaE9e-53" value="Searh Hotels &lt;br&gt;with Filter" style="rhombus;whiteSpace=wrap;html=1;" vertex="1" parent="WIyWlLk6GJQsqaUBKTNV-1">
          <mxGeometry x="481.37" y="-220" width="94" height="92" as="geometry" />
        </mxCell>
        <mxCell id="peFO1UqC1hC2nllYaE9e-56" value="Login" style="rounded=1;whiteSpace=wrap;html=1;" vertex="1" parent="WIyWlLk6GJQsqaUBKTNV-1">
          <mxGeometry x="114.62" y="-284" width="120" height="60" as="geometry" />
        </mxCell>
        <mxCell id="peFO1UqC1hC2nllYaE9e-57" value="Register" style="rounded=1;whiteSpace=wrap;html=1;" vertex="1" parent="WIyWlLk6GJQsqaUBKTNV-1">
          <mxGeometry x="250.37" y="-284" width="120" height="60" as="geometry" />
        </mxCell>
      </root>
    </mxGraphModel>
  </diagram>
</mxfile>
